# xmcd
#
# Track frame offsets:
#	182
#	11380
#	20832
#	34857
#	46360
#	64927
#	80285
#	93527
#	108855
#	120230
#	131877
#	146372
#
# Disc length: 2134 seconds
#
# Revision: 0
# Processed by: cddbd v1.4PL0 Copyright (c) Steve Scherf et al.
# Submitted via: audiograbber 1.80.04
#
DISCID=9908540c
DTITLE=FRED BONGUSTO - I GRANDI SUCCESSI ORIGINALI CD2
DYEAR=1900
DGENRE=
TTITLE0=E MI CONSUMA L'ESTATE
TTITLE1=MALAGA
TTITLE2=MARE NON CANTARE
TTITLE3=NOI INNAMORATI D'INPROVVISO
TTITLE4=NON E' UN CAPRICCIO D'AGOSTO
TTITLE5=O CIELO CE MANNA STI COSE 
TTITLE6=ORE D'AMORE
TTITLE7=CHE SERA TRISTE CHE CHIARO 'ELUNA
TTITLE8=TU NUN E' A CHIAGNERE
TTITLE9=UNA STRISCIA DI MARE
TTITLE10=IL FISCHIO (SE MI VUOI BENE SCENDI GIU')
TTITLE11=SE L'AMORE POTESSE RITORNARE
EXTD=
EXTT0=
EXTT1=
EXTT2=
EXTT3=
EXTT4=
EXTT5=
EXTT6=
EXTT7=
EXTT8=
EXTT9=
EXTT10=
EXTT11=
PLAYORDER=
